<?xml version="1.0" encoding="utf-8"?>
<!-- Generator: Adobe Illustrator 20.1.0, SVG Export Plug-In . SVG Version: 6.00 Build 0)  -->
<svg version="1.1" id="レイヤー_1" xmlns="http://www.w3.org/2000/svg" xmlns:xlink="http://www.w3.org/1999/xlink" x="0px"
	 y="0px" viewBox="0 0 40 40" style="enable-background:new 0 0 40 40;" xml:space="preserve">
<style type="text/css">
	.st0{fill:#9A9A9B;}
</style>
<g>
	<g>
		<g>
			<polygon class="st0" points="33.4,34.7 28.7,22.6 16,22.6 16,8.1 17.3,8.1 17.3,21.3 29.6,21.3 34.1,33 38.1,31.5 38.6,32.8 			
				"/>
		</g>
		<g>
			<polygon class="st0" points="32.8,36.1 28,23.7 14.9,23.7 14.9,7 18.4,7 18.4,20.2 30.4,20.2 34.8,31.6 38.7,30.1 40,33.4 			"/>
		</g>
	</g>
	<g>
		<g>
			<rect x="16.5" y="15.6" class="st0" width="10.8" height="1.3"/>
		</g>
		<g>
			<rect x="15.5" y="14.5" class="st0" width="12.9" height="3.5"/>
		</g>
	</g>
	<g>
		<g>
			<circle class="st0" cx="18.7" cy="6.3" r="3.6"/>
		</g>
		<g>
			<path class="st0" d="M18.7,11C16.1,11,14,8.9,14,6.3s2.1-4.7,4.7-4.7s4.7,2.1,4.7,4.7S21.3,11,18.7,11z M18.7,3.7
				c-1.4,0-2.5,1.1-2.5,2.5s1.1,2.5,2.5,2.5c1.4,0,2.5-1.1,2.5-2.5S20.1,3.7,18.7,3.7z"/>
		</g>
	</g>
	<g>
		<g>
			<path class="st0" d="M13.1,36.9c-6.6,0-12-5.4-12-12c0-4.9,3.1-9.4,7.7-11.2l0.5,1.2c-4.1,1.6-6.8,5.6-6.8,10
				c0,5.9,4.8,10.7,10.7,10.7c3.7,0,7.1-1.9,9.1-5.1l1.1,0.7C21.2,34.7,17.3,36.9,13.1,36.9z"/>
		</g>
		<g>
			<path class="st0" d="M13.1,38C5.9,38,0.1,32.1,0.1,24.9c0-5.4,3.4-10.3,8.4-12.2l1-0.4l1.2,3.3l-1,0.4c-3.7,1.4-6.2,5-6.2,8.9
				c0,5.3,4.3,9.6,9.6,9.6c3.4,0,6.4-1.7,8.2-4.6l0.6-0.9l3,1.8l-0.6,0.9C21.9,35.6,17.7,38,13.1,38z"/>
		</g>
	</g>
</g>
</svg>
